<svg id="Ebene_1" data-name="Ebene 1" xmlns="http://www.w3.org/2000/svg" viewBox="0 0 99.89 112.66"><defs><style>.cls-1{fill:#066938;}.cls-2{fill:#343434;}.cls-3{fill:none;}.cls-4{fill:#544842;}.cls-5{fill:#009245;}.cls-6{fill:#065a2a;}</style></defs><polygon class="cls-1" points="50.07 12.26 39.66 2.05 37.56 0 37.56 10.22 37.56 12.27 27.13 2.05 25.04 0 25.04 10.21 25.04 12.26 14.62 2.05 12.53 0 12.53 10.22 12.53 12.27 2.1 2.05 0 0 0 12.27 0 18.26 50.07 18.26 50.07 12.26"/><polygon class="cls-2" points="37.55 25.04 12.52 25.04 0 25.04 0 112.66 50.07 112.66 50.07 25.04 37.55 25.04"/><polyline class="cls-3" points="0 0 0 0.51 2.1 2.56 2.1 0.51 12.53 10.73 12.53 0.51 14.62 2.56 14.62 0.51 25.04 10.72 25.04 0.51 27.13 2.56 27.13 0.51 37.56 10.73 37.56 0.51 39.66 2.56 39.66 0.51 50.07 10.72"/><path class="cls-4" d="M50.07,87.63v-25c-12.52,0-12.52-12.52-25-12.52S12.52,62.59,0,62.59v25c12.52,0,12.52-12.52,25-12.52S37.55,87.63,50.07,87.63Z"/><path class="cls-1" d="M50.06,18.78H0v25c12.52,0,12.52-12.52,25-12.52s12.51,12.52,25,12.52v-25Z"/><path class="cls-2" d="M25,75.11c-12.52,0-12.52,12.52-25,12.52H50.07C37.55,87.63,37.55,75.11,25,75.11Z"/><polygon class="cls-5" points="12.51 25.04 12.53 25.04 14.6 25.04 14.62 25.04 25.03 25.04 25.04 25.04 27.12 25.04 27.13 25.04 37.55 25.04 37.56 25.04 39.65 25.04 39.66 25.04 50.06 25.04 50.07 25.04 50.07 18.78 0 18.78 0 25.04 2.1 25.04 12.51 25.04"/><polygon class="cls-6" points="12.51 28.16 12.53 28.16 14.6 28.16 14.62 28.16 25.03 28.16 25.04 28.16 27.12 28.16 27.13 28.16 37.55 28.16 37.56 28.16 39.65 28.16 39.66 28.16 50.06 28.16 50.07 28.16 50.07 25.04 0 25.04 0 28.16 2.1 28.16 12.51 28.16"/><polygon class="cls-5" points="40.11 12.79 40.99 10.73 45.36 0.51 42.39 2.56 27.61 12.77 28.48 10.72 32.85 0.51 29.88 2.56 15.07 12.79 15.95 10.73 20.32 0.51 17.35 2.56 2.57 12.77 7.81 0.51 4.84 2.56 0 5.91 0 18.78 50.07 18.78 50.07 5.91 40.11 12.79"/><polygon class="cls-1" points="99.89 12.26 89.47 2.05 87.38 0 87.38 10.22 87.38 12.27 76.94 2.05 74.85 0 74.85 10.21 74.85 12.26 64.44 2.05 62.34 0 62.34 10.22 62.34 12.27 51.91 2.05 49.81 0 49.81 12.27 49.81 18.26 99.89 18.26 99.89 12.26"/><polygon class="cls-2" points="87.37 25.04 62.33 25.04 49.81 25.04 49.81 112.66 99.89 112.66 99.89 25.04 87.37 25.04"/><polyline class="cls-3" points="49.81 0 49.81 0.51 51.91 2.56 51.91 0.51 62.34 10.73 62.34 0.51 64.44 2.56 64.44 0.51 74.85 10.72 74.85 0.51 76.94 2.56 76.94 0.51 87.38 10.73 87.38 0.51 89.47 2.56 89.47 0.51 99.89 10.72"/><path class="cls-4" d="M99.89,87.63v-25c-12.52,0-12.52-12.52-25-12.52s-12.52,12.52-25,12.52v25c12.52,0,12.52-12.52,25-12.52S87.37,87.63,99.89,87.63Z"/><path class="cls-1" d="M99.88,18.78H49.81v25c12.52,0,12.52-12.52,25-12.52s12.52,12.52,25,12.52v-25Z"/><path class="cls-2" d="M74.85,75.11c-12.52,0-12.52,12.52-25,12.52H99.89C87.37,87.63,87.37,75.11,74.85,75.11Z"/><polygon class="cls-5" points="62.32 25.04 62.34 25.04 64.42 25.04 64.44 25.04 74.84 25.04 74.85 25.04 76.94 25.04 76.94 25.04 87.37 25.04 87.38 25.04 89.46 25.04 89.47 25.04 99.88 25.04 99.89 25.04 99.89 18.78 49.81 18.78 49.81 25.04 51.91 25.04 62.32 25.04"/><polygon class="cls-6" points="62.32 28.16 62.34 28.16 64.42 28.16 64.44 28.16 74.84 28.16 74.85 28.16 76.94 28.16 76.94 28.16 87.37 28.16 87.38 28.16 89.46 28.16 89.47 28.16 99.88 28.16 99.89 28.16 99.89 25.04 49.81 25.04 49.81 28.16 51.91 28.16 62.32 28.16"/><polygon class="cls-5" points="89.92 12.79 90.8 10.73 95.17 0.51 92.2 2.56 77.42 12.77 78.3 10.72 82.66 0.51 79.69 2.56 64.89 12.79 65.77 10.73 70.14 0.51 67.17 2.56 52.38 12.77 57.63 0.51 54.66 2.56 49.81 5.91 49.81 18.78 99.89 18.78 99.89 5.91 89.92 12.79"/></svg>